<svg version="1.1" xmlns="http://www.w3.org/2000/svg" xmlns:xlink="http://www.w3.org/1999/xlink" width="24" height="24" viewBox="0,0,256,256"><g fill="#6fa6f4" fill-rule="nonzero" stroke="none" stroke-width="1" stroke-linecap="butt" stroke-linejoin="miter" stroke-miterlimit="10" stroke-dasharray="" stroke-dashoffset="0" font-family="none" font-weight="none" font-size="none" text-anchor="none" style="mix-blend-mode: normal"><path d="M0,256v-256h256v256z" id="bgRectangle"></path></g><g fill="none" fill-rule="nonzero" stroke="#000000" stroke-width="2" stroke-linecap="round" stroke-linejoin="round" stroke-miterlimit="10" stroke-dasharray="" stroke-dashoffset="0" font-family="none" font-weight="none" font-size="none" text-anchor="none" style="mix-blend-mode: normal"><g transform="translate(0,0) scale(10.66667,10.66667)"><path d="M12,16h0.01"></path><path d="M16,16h0.01"></path><path d="M3,19c0,1.10457 0.89543,2 2,2h14c1.10457,0 2,-0.89543 2,-2v-10.5c0.00019,-0.1827 -0.09928,-0.35097 -0.25946,-0.43886c-0.16017,-0.0879 -0.35553,-0.08143 -0.50954,0.01686l-4.462,2.844c-0.15401,0.0983 -0.34937,0.10476 -0.50954,0.01686c-0.16017,-0.0879 -0.25965,-0.25616 -0.25946,-0.43886v-2c0.00019,-0.1827 -0.09928,-0.35097 -0.25946,-0.43886c-0.16017,-0.0879 -0.35553,-0.08143 -0.50954,0.01686l-4.461,2.844c-0.15405,0.09884 -0.3498,0.1056 -0.5103,0.01764c-0.16051,-0.08797 -0.26012,-0.2566 -0.2597,-0.43964v-5.5c0,-1.10457 -0.89543,-2 -2,-2h-2c-1.10457,0 -2,0.89543 -2,2z"></path><path d="M8,16h0.01"></path></g></g></svg>